<?xml version="1.0" standalone="no"?><!DOCTYPE svg PUBLIC "-//W3C//DTD SVG 1.1//EN" "http://www.w3.org/Graphics/SVG/1.1/DTD/svg11.dtd"><svg t="1701574358551" class="icon" viewBox="0 0 1024 1024" version="1.1" xmlns="http://www.w3.org/2000/svg" p-id="10341" xmlns:xlink="http://www.w3.org/1999/xlink" width="200" height="200"><path d="M115.157775 895.79225c-9.165982-19.657962-29.087943-32.351937-50.759901-32.351936-8.183984 0-16.115969 1.763997-23.577954 5.229989-13.551974 6.323988-23.841953 17.533966-28.963943 31.569939-5.13599 14.039973-4.479991 29.245943 1.843996 42.783916 9.165982 19.659962 29.087943 32.369937 50.759901 32.369937 8.181984 0 16.113969-1.765997 23.607954-5.24799 27.949945-13.037975 40.127922-46.389909 27.089947-74.353855z m-33.849934 59.861883c-19.501962 9.055982-44.109914-0.048-53.117896-19.375962a39.605923 39.605923 0 0 1-1.311997-30.55794c3.667993-10.02198 11.007979-18.047965 20.687959-22.543956a39.631923 39.631923 0 0 1 16.831967-3.747993c15.48997 0 29.729942 9.071982 36.271929 23.107955 9.305982 19.987961 0.607999 43.815914-19.361962 53.117896zM304.305406 771.772493a7.991984 7.991984 0 0 0-10.881979-3.043994l-181.669645 102.2398a7.979984 7.979984 0 0 0-3.043994 10.881979 7.993984 7.993984 0 0 0 6.963986 4.075992 7.859985 7.859985 0 0 0 3.919992-1.031998l181.667646-102.239801a7.983984 7.983984 0 0 0 3.043994-10.881978zM331.835352 830.868377a8.015984 8.015984 0 0 0-10.30598-4.669991l-195.173619 73.245857a8.015984 8.015984 0 0 0-4.683991 10.28998 8.005984 8.005984 0 0 0 7.493986 5.18399c0.935998 0 1.871996-0.156 2.811994-0.499999l195.173619-73.245857a8.039984 8.039984 0 0 0 4.683991-10.30398z" p-id="10342" fill="#1296db"></path><path d="M404.067211 796.550444l-27.011947-57.989887a8.019984 8.019984 0 0 0-4.497992-4.137991 8.233984 8.233984 0 0 0-6.121988 0.265999l-57.957886 27.011947c-3.995992 1.875996-5.747989 6.621987-3.871993 10.61998l26.979947 57.973886a7.963984 7.963984 0 0 0 7.243986 4.619991c1.155998 0 2.309995-0.25 3.373994-0.749998l57.989886-26.995948a8.015984 8.015984 0 0 0 4.137992-4.495991c0.733999-1.999996 0.641999-4.201992-0.263999-6.121988z m-61.36588 19.751962l-20.235961-43.485915 43.469915-20.249961 20.265961 43.483915-43.499915 20.251961zM312.33539 751.082533l-40.487921-86.96783c-1.841996-3.997992-6.587987-5.731989-10.617979-3.873993a7.985984 7.985984 0 0 0-3.871993 10.61798l40.485921 86.96983a7.973984 7.973984 0 0 0 10.61798 3.871992 7.979984 7.979984 0 0 0 3.873992-10.617979z" p-id="10343" fill="#1296db"></path><path d="M340.673335 736.452562l-54.991893-80.223844a8.011984 8.011984 0 0 0-11.117978-2.075996 8.009984 8.009984 0 0 0-2.061996 11.117979l54.991892 80.221843a8.003984 8.003984 0 0 0 6.589987 3.465993c1.559997 0 3.137994-0.451999 4.527992-1.387997a8.009984 8.009984 0 0 0 2.061996-11.117978zM283.961445 614.3668c-7.213986-15.47397-26.965947-22.701956-42.485917-15.47397-7.745985 3.607993-13.631973 10.00998-16.535967 18.035965a31.667938 31.667938 0 0 0 1.045998 24.435952c5.23199 11.241978 16.613968 18.501964 28.995943 18.501964a31.559938 31.559938 0 0 0 13.491974-3.013994c7.743985-3.589993 13.613973-10.00798 16.549967-18.033965a31.783938 31.783938 0 0 0-1.061998-24.451952z m-13.959972 18.985963a15.859969 15.859969 0 0 1-8.275984 9.009982c-7.821985 3.667993-17.643966 0-21.249959-7.745984a15.845969 15.845969 0 0 1-0.515999-12.207977 15.839969 15.839969 0 0 1 8.275984-9.025982 15.725969 15.725969 0 0 1 6.729987-1.497997 16.059969 16.059969 0 0 1 14.503972 9.225982c1.813996 3.871992 1.999996 8.209984 0.531999 12.241976zM393.323232 925.008193l-40.501921-86.96983c-1.841996-3.997992-6.589987-5.731989-10.617979-3.873992a7.987984 7.987984 0 0 0-3.871993 10.617979l40.501921 86.96983a7.969984 7.969984 0 0 0 10.617979 3.873993 7.987984 7.987984 0 0 0 3.871993-10.61798z" p-id="10344" fill="#1296db"></path><path d="M408.279203 919.492204l-26.01195-93.729817c-1.169998-4.247992-5.557989-6.713987-9.83598-5.557989a7.985984 7.985984 0 0 0-5.55799 9.835981l25.98195 93.729817a8.019984 8.019984 0 0 0 9.84998 5.573989 8.007984 8.007984 0 0 0 5.57399-9.851981z" p-id="10345" fill="#1296db"></path><path d="M439.195142 947.772149c-7.181986-15.47197-26.931947-22.763956-42.499917-15.50397-7.745985 3.591993-13.615973 9.99198-16.551967 18.033965a31.829938 31.829938 0 0 0 1.061997 24.467952c5.23199 11.209978 16.613968 18.469964 28.995944 18.469964 4.699991 0 9.225982-1.015998 13.489973-3.011994a31.629938 31.629938 0 0 0 16.535968-18.035965 31.703938 31.703938 0 0 0-1.031998-24.419952z m-13.989972 18.953963a15.755969 15.755969 0 0 1-8.275984 9.009982c-7.837985 3.653993-17.643966-0.016-21.233959-7.727985a15.859969 15.859969 0 0 1-0.531999-12.241976 15.825969 15.825969 0 0 1 8.275984-8.991982 15.813969 15.813969 0 0 1 6.745987-1.515997 16.027969 16.027969 0 0 1 14.503972 9.259982 15.841969 15.841969 0 0 1 0.515999 12.207976zM367.683282 780.794475l-21.235959-7.761985c-4.151992-1.481997-8.741983 0.609999-10.25798 4.779991a7.979984 7.979984 0 0 0 4.761991 10.24198l21.235959 7.759985c0.905998 0.327999 1.841996 0.483999 2.747994 0.483999a7.993984 7.993984 0 0 0 2.747995-15.50397z" p-id="10346" fill="#1296db"></path><path d="M360.921295 766.290503a8.015984 8.015984 0 0 0-10.24198 4.777991l-7.743985 21.267958a7.977984 7.977984 0 0 0 4.777991 10.24198 7.979984 7.979984 0 0 0 10.23998-4.77799l7.745985-21.267959a7.987984 7.987984 0 0 0-4.777991-10.24198zM361.625294 898.994244c-3.933992-1.965996-8.743983-0.343999-10.709979 3.607993-25.48195 51.3679-76.491851 91.557821-129.969747 102.3798-31.477939 6.383988-78.599846 5.713989-124.301757-33.663934a7.993984 7.993984 0 0 0-11.273978 0.841998 7.975984 7.975984 0 0 0 0.841999 11.273978c36.487929 31.431939 73.853856 40.565921 104.971795 40.565921a165.519677 165.519677 0 0 0 32.915935-3.341993c58.145886-11.757977 113.543778-55.321892 141.149725-110.953784a7.975984 7.975984 0 0 0-3.623993-10.709979zM64.929873 901.538239a8.003984 8.003984 0 0 0-10.617979-3.871992c-11.993977 5.589989-17.207966 19.891961-11.617977 31.867938a7.973984 7.973984 0 0 0 7.245985 4.62199 7.985984 7.985984 0 0 0 7.245986-11.365977 7.929985 7.929985 0 0 1-0.265999-6.121988 7.997984 7.997984 0 0 1 4.137992-4.511992 7.985984 7.985984 0 0 0 3.871992-10.617979zM1008.140031 0.715999c-4.625991-0.319999-8.215984 2.997994-8.527983 7.401985-0.405999 5.377989-44.687913 540.422944-591.458845 777.722481a7.999984 7.999984 0 0 0-4.151992 10.50798 7.989984 7.989984 0 0 0 7.337986 4.80799c1.063998 0 2.155996-0.202 3.187993-0.655998C970.084105 559.390907 1015.162017 14.727971 1015.538017 9.255982a7.977984 7.977984 0 0 0-7.397986-8.539983z" p-id="10347" fill="#1296db"></path><path d="M955.708133 112.89578c-4.215992-1.061998-8.649983 1.395997-9.78998 5.675988-42.921916 161.251685-167.209673 456.605108-517.36899 622.878784a7.977984 7.977984 0 0 0-3.779993 10.647979 7.981984 7.981984 0 0 0 7.213986 4.557991c1.153998 0 2.309995-0.25 3.435994-0.761998C791.388454 586.858854 917.736208 286.60944 961.376122 122.67776a7.999984 7.999984 0 0 0-5.667989-9.78198z" p-id="10348" fill="#1296db"></path><path d="M1007.108033 0.012c-4.417991 0.281999-7.729985 3.387993-7.463985 7.791985-0.172 0.811998-5.33999 20.749959-86.875831 98.687807-67.545868 64.565874-116.261773 57.225888-116.729772 57.155888a7.947984 7.947984 0 0 0-6.449987 1.631997 8.049984 8.049984 0 0 0-2.979994 5.957989c-10.585979 308.859397-402.497214 554.708917-406.449206 557.158911a7.987984 7.987984 0 0 0 4.199991 14.785971 7.899985 7.899985 0 0 0 4.199992-1.185997c3.997992-2.467995 396.299226-248.489515 413.663192-562.040902 18.641964-0.14 64.203875-7.057986 121.601763-61.90988 59.143884-56.52389 92.573819-96.573811 91.72982-109.867785-0.281999-4.403991-3.995992-8.415984-8.445983-8.165984z" p-id="10349" fill="#1296db"></path></svg>