<?xml version="1.0" standalone="no"?><!DOCTYPE svg PUBLIC "-//W3C//DTD SVG 1.1//EN" "http://www.w3.org/Graphics/SVG/1.1/DTD/svg11.dtd"><svg t="1701573665780" class="icon" viewBox="0 0 1024 1024" version="1.1" xmlns="http://www.w3.org/2000/svg" p-id="5361" xmlns:xlink="http://www.w3.org/1999/xlink" width="200" height="200"><path d="M580.118644 165.535625a138.756592 138.756592 0 0 1-61.79777 13.265922 138.674195 138.674195 0 0 1-61.797769-13.265922c-35.966302-18.333338-53.970052-26.779033-89.936354-43.670423-33.988773-15.985023-33.988773-41.775292 0-58.666683C402.882641 45.318364 420.845192 35.966302 456.852693 15.161053a132.865205 132.865205 0 0 1 123.265951 0C616.084945 35.966302 634.047497 45.318364 670.054998 63.198519c33.988773 16.932589 33.988773 42.722858 0 58.666683-36.0075 16.89139-53.970052 25.337086-89.936354 43.670423z" fill="#1985CE" p-id="5362"></path><path d="M919.141207 257.367111L829.163655 312.284729a129.692919 129.692919 0 0 1-123.265951 0l-89.895156-54.917618c-2.142323-1.318352-35.554317-26.655438-97.51688-26.655438s-95.333359 25.337086-97.51688 26.655438L331.032434 312.284729a119.887673 119.887673 0 0 1-61.79777 15.573038 119.805276 119.805276 0 0 1-61.797769-15.573038L117.994923 257.367111c-16.479405-10.052437-25.50188-23.441954-25.50188-37.655441S101.515518 193.262225 117.994923 184.404544c35.966302-19.445698 53.970052-28.220981 89.977552-45.318364a146.172324 146.172324 0 0 1 61.79777-12.112363 146.337118 146.337118 0 0 1 61.79777 12.153561c35.966302 17.262177 53.928854 26.03746 89.936353 45.318365 2.183521 1.153558 35.554317 24.719108 97.516881 24.719108s95.374558-23.400755 97.51688-24.719108c35.966302-19.445698 53.970052-28.220981 89.936354-45.318365a162.610531 162.610531 0 0 1 123.265951 0c35.966302 17.262177 53.970052 26.078659 89.936354 45.318365 16.479405 8.898879 25.50188 21.093639 25.50188 35.307125s-9.599254 27.43821-26.037461 37.614243z" fill="#1DC5FF" p-id="5363"></path><path d="M456.852693 279.243521a119.928871 119.928871 0 0 1 61.797769-15.573038 119.846474 119.846474 0 0 1 61.79777 15.573038L670.054998 334.202338c33.988773 20.599257 33.988773 54.505633 0 75.269683l-89.936354 54.958816a119.846474 119.846474 0 0 1-61.79777 15.573038 119.805276 119.805276 0 0 1-61.797769-15.573038L366.916339 409.472021c-33.988773-20.599257-33.988773-54.505633 0-75.269683zM959.144963 276.030037c-11.0824-6.262174-25.955063-4.119851-41.898887 5.726594l-86.970061 54.340838c-32.95881 20.599257-59.985035 68.677921-60.479417 107.404524l-1.277154 102.5019c-0.247191 18.745323 5.726593 32.546825 16.850192 38.767801s25.955063 4.119851 41.898887-5.685395l87.01126-54.258442c32.95881-20.599257 59.985035-68.677921 60.479417-107.404523l1.277154-102.5019c0.205993-18.745323-5.767792-32.546825-16.891391-38.891397z" fill="#35B0ED" p-id="5364"></path><path d="M741.20483 663.29606c29.539334 16.479405 25.089894 61.79777 25.048695 64.187283l-1.441947 102.378305c-0.247191 18.745323 5.767792 32.505627 16.850191 38.767801s25.955063 4.119851 41.898888-5.726594l87.01126-54.217243a143.000039 143.000039 0 0 0 60.479417-107.363325l1.277154-102.5019c0.247191-18.745323-5.726593-32.546825-16.850192-38.767801s-25.955063-4.119851-41.898888 5.726593L826.609347 619.955224c-2.101124 1.318352-38.355816 28.468172-67.895149 11.865172s-25.089894-61.79777-25.048696-64.187284l1.277154-102.5019c0.247191-18.745323-5.726593-32.546825-16.850192-38.767801s-25.955063-4.119851-41.898888 5.685395L589.347111 486.142454a142.95884 142.95884 0 0 0-60.479418 107.404523l-1.277153 102.707893c-0.247191 18.745323 5.767792 32.546825 16.850191 38.767801s25.955063 4.119851 41.898888-5.685395l87.01126-54.258442c2.059926-1.359551 38.314617-28.55057 67.853951-11.782774z" fill="#1985CE" p-id="5365"></path><path d="M714.672987 710.179967c-11.0824-6.220975-25.955063-4.119851-41.898888 5.726594l-87.011259 54.258441c-32.95881 20.599257-59.985035 68.636723-60.479417 107.404524l-1.277154 102.5019c-0.247191 18.745323 5.767792 32.546825 16.850192 38.767801s25.955063 4.119851 41.898887-5.726593l87.01126-54.217243c32.95881-20.599257 59.985035-68.677921 60.479417-107.404524l1.277154-102.5019c0.329588-18.745323-5.767792-32.546825-16.850192-38.809z m-358.344666-34.812743a137.561835 137.561835 0 0 1-60.68541-107.116134l0.411985-103.573062c0-39.138587 27.644202-54.711625 61.262189-34.689148l89.029987 52.981288a137.479438 137.479438 0 0 1 60.68541 107.116134l-0.411986 103.573062c0 39.138587-27.644202 54.670427-61.262188 34.689148z" fill="#1DC5FF" p-id="5366"></path><path d="M444.204749 1015.213758l-89.029986-52.981288a137.520636 137.520636 0 0 1-60.68541-107.116134l0.411985-103.573061c0-2.471911 4.119851-43.21724-26.32585-97.146094s-67.565561-71.314626-69.707884-72.59178L109.75522 528.659319A126.273442 126.273442 0 0 1 66.785171 482.022602a126.438236 126.438236 0 0 1-17.632963-60.644211l0.411985-103.573062c0-18.951316 6.509365-32.95881 18.086147-39.550572s26.902629-4.820226 43.21724 4.861424l88.988788 52.981288a126.355839 126.355839 0 0 1 43.052447 46.471923 126.314641 126.314641 0 0 1 17.674162 60.809005l-0.411986 103.573062c0 2.513109-4.119851 43.21724 26.32585 97.146094S354.021204 715.412179 356.163527 716.854127l89.029986 52.981287a137.520636 137.520636 0 0 1 60.68541 107.116134l-0.411985 103.573062c0 18.951316-6.509365 32.95881-18.086147 39.550572s-26.902629 4.820226-43.176042-4.861424z" fill="#35B0ED" p-id="5367"></path><path d="M198.661612 622.962715A126.438236 126.438236 0 0 1 241.590462 669.434638a126.438236 126.438236 0 0 1 17.674162 60.809005l-0.411985 103.573062c0 39.138587-27.644202 54.670427-61.262189 34.689148L108.642861 815.730558a126.438236 126.438236 0 0 1-43.011248-46.636717A126.273442 126.273442 0 0 1 47.957451 708.243637l0.411985-103.573061c0-39.138587 27.644202-54.670427 61.262189-34.689148z" fill="#1985CE" p-id="5368"></path></svg>